<svg id="レイヤー_1" data-name="レイヤー 1" xmlns="http://www.w3.org/2000/svg" viewBox="0 0 345.49 170.28"><defs><style>.cls-1{fill:#ffd527;}.cls-2{fill:#333;}</style></defs><title>logo</title><polygon class="cls-1" points="98.74 107.15 172.75 170.28 172.75 107.15 98.74 107.15"/><polygon class="cls-1" points="246.75 107.15 172.75 170.28 172.75 107.15 246.75 107.15"/><path class="cls-2" d="M199.24,147.79a21.9,21.9,0,1,1,2.27-7.49h11.08q.09-1.2.09-2.43a32.78,32.78,0,1,0-1.57,9.92Z" transform="translate(-72.63 -78.41)"/><polygon class="cls-2" points="134.67 61.89 128.89 61.89 80.66 61.89 80.66 52.35 134.67 52.35 134.67 61.89"/><polygon class="cls-2" points="151.64 92.13 151.64 82.27 151.64 0 161.72 0 161.72 92.13 151.64 92.13"/><polygon class="cls-2" points="172.61 92.13 172.61 82.27 172.61 0 182.69 0 182.69 92.13 172.61 92.13"/><path class="cls-2" d="M298.89,105.19a32.68,32.68,0,1,0,32.68,32.68A32.68,32.68,0,0,0,298.89,105.19Zm0,54.46a21.78,21.78,0,1,1,21.78-21.78A21.78,21.78,0,0,1,298.89,159.65Z" transform="translate(-72.63 -78.41)"/><polygon class="cls-2" points="334.6 28.95 318.94 71.71 302.6 46.52 286.26 71.71 270.6 28.95 259.71 28.95 284.9 92.13 302.6 63.26 320.3 92.13 345.49 28.95 334.6 28.95"/><polygon class="cls-2" points="40.35 92.13 40.35 87.31 40.35 47.08 50.42 47.08 50.42 92.13 40.35 92.13"/><polygon class="cls-2" points="42.28 49.68 46.59 43.74 78.34 0 90.7 0.12 50.43 55.59 42.28 49.68"/><polygon class="cls-2" points="48.42 49.68 44.11 43.74 12.36 0 0 0.12 40.27 55.59 48.42 49.68"/></svg>